# xmcd
#
# Track frame offsets:
#  150
#  14030
#  27645
#  40937
#  51456
#  62368
#  77067
#  89746
#  101771
#  114840
#  129082
#  142585
#  155258
#  167304
#  180805
#  193404
#  206453
#  219816
#  231571
#  243823
#  256665
#  267624
#  280742
#  295216
#  306726
#  319431
#
# Disc length: 4410 seconds
#
# Revision: 1
# Processed by: cddbd v1.5.2PL0 Copyright (c) Steve Scherf et al.
# Submitted via: AltoMP3_Maker 3.0
#
DISCID=7311381a
DTITLE=B. B. King - The Essence Of B.B. King - CD 2
DYEAR=2008
DGENRE=Blues
TTITLE0=Why Did You Leave Me
TTITLE1=Blind Love
TTITLE2=Woke Up This Morning
TTITLE3=Don't You Want A Man Like Me
TTITLE4=Everything I Do Is Wrong
TTITLE5=Please Help Me
TTITLE6=Praying To The Lord
TTITLE7=The Woman I Love
TTITLE8=When My Heart Beats Like A Hammer
TTITLE9=Whole Lotta Love
TTITLE10=You Upset Me baby
TTITLE11=Every Day I Have The Blues
TTITLE12=Shut Your Mouth
TTITLE13=Sneakin' Around
TTITLE14=Ten Long Years
TTITLE15=Bad Luck
TTITLE16=Cryin' Won't Help You
TTITLE17=Dark Is The Night 1
TTITLE18=Dark Is The Night 2
TTITLE19=I'm Cracking Up Over You
TTITLE20=Let's Do The Boogie
TTITLE21=On My Word Of Honor
TTITLE22=Sweet Little Angel
TTITLE23=Did You Ever Love A Woman
TTITLE24=I Want To Get Married
TTITLE25=I'm Gonna Quit My Baby
EXTD=
EXTT0=
EXTT1=
EXTT2=
EXTT3=
EXTT4=
EXTT5=
EXTT6=
EXTT7=
EXTT8=
EXTT9=
EXTT10=
EXTT11=
EXTT12=
EXTT13=
EXTT14=
EXTT15=
EXTT16=
EXTT17=
EXTT18=
EXTT19=
EXTT20=
EXTT21=
EXTT22=
EXTT23=
EXTT24=
EXTT25=
PLAYORDER=
